<?xml version="1.0" encoding="UTF-8"?>
<svg id="Layer_1" xmlns="http://www.w3.org/2000/svg" xmlns:xlink="http://www.w3.org/1999/xlink" version="1.1" viewBox="0 0 48 48">
  <!-- Generator: Adobe Illustrator 29.3.1, SVG Export Plug-In . SVG Version: 2.1.0 Build 151)  -->
  <defs>
    <style>
      .st0 {
        fill: #4c00ff;
      }
    </style>
  </defs>
  <path class="st0" d="M35.9,36.6V10.5c0-1.8-1.2-2.6-1.7-2.9-.5-.3-1.9-.9-3.4,0l-.3.2-16.3,9.4h0l-.5.3h0s-5.4,3.1-5.4,3.1c-1.5.9-1.7,2.3-1.7,2.9s.2,2,1.7,2.9l12,7c0-.1,0-.2.2-.3l2.6-4.5-6.6-3.9c-.7-.4-1.1-1.3-.8-2.1,0-.6.4-1.1.9-1.5l11.7-6.8c.6-.4,1.4-.3,2,0,.6.3,1.1.9,1.1,1.7v.8l-3.7,2.1h0l-6.8,3.9,6.8,3.9v-3.8l3.7-2.1v8.9c0,.4-.1.7-.3,1,0,0,0,0,0,0-.5.9-1.6,1.2-2.5.7l-2.2-1.2-2.6,4.5c0,.1-.1.2-.2.3l7.5,4.2c1.5.9,2.9.3,3.4,0,.5-.3,1.7-1.2,1.7-2.9h0Z"/>
</svg>